HIERARCHY
ROOT Hips
{
	OFFSET 0.00 0.00 0.00
	CHANNELS 6 Xposition Yposition Zposition Xrotation Yrotation Zrotation
	JOINT Spine
	{
		OFFSET 0.00000 3.24121 0.00000
		CHANNELS 3 Xrotation Yrotation Zrotation
		JOINT Head
		{
			OFFSET 0.00000 18.38296 0.00000
			CHANNELS 3 Xrotation Yrotation Zrotation
			End Site
			{
				OFFSET 0.00000 4.52755 0.00000
			}
		}
		JOINT LeftShoulder
		{
			OFFSET 0.00000 12.82826 0.00000
			CHANNELS 3 Xrotation Yrotation Zrotation
			JOINT LeftArm
			{
				OFFSET 7.74805 0.00000 0.00000
				CHANNELS 3 Xrotation Yrotation Zrotation
				JOINT LeftForeArm
				{
					OFFSET 10.63561 0.00000 0.00000
					CHANNELS 3 Yrotation Zrotation Xrotation
					JOINT LeftHand
					{
						OFFSET 8.34675 0.00000 0.00000
						CHANNELS 3 Xrotation Yrotation Zrotation
						JOINT LeftHandThumb1
						{
							OFFSET 0.00000 0.00000 0.00000
							CHANNELS 3 Xrotation Zrotation Yrotation
							End Site
							{
								OFFSET 0.00000 0.00000 3.93700
							}
						}
						End Site
						{
							OFFSET 3.93700 0.00000 0.00000
						}
					}
				}
			}
		}
		JOINT RightShoulder
		{
			OFFSET 0.00000 12.82826 0.00000
			CHANNELS 3 Xrotation Yrotation Zrotation
			JOINT RightArm
			{
				OFFSET -7.74805 0.00000 0.00000
				CHANNELS 3 Xrotation Yrotation Zrotation
				JOINT RightForeArm
				{
					OFFSET -10.63561 0.00000 0.00000
					CHANNELS 3 Yrotation Zrotation Xrotation
					JOINT RightHand
					{
						OFFSET -8.34675 0.00000 0.00000
						CHANNELS 3 Xrotation Yrotation Zrotation
						JOINT RightHandThumb1
						{
							OFFSET 0.00000 0.00000 0.00000
							CHANNELS 3 Xrotation Zrotation Yrotation
							End Site
							{
								OFFSET 0.00000 0.00000 3.93700
							}
						}
						End Site
						{
							OFFSET -3.93700 0.00000 0.00000
						}
					}
				}
			}
		}
	}
	JOINT LeftUpLeg
	{
		OFFSET 3.43402 0.00000 0.00000
		CHANNELS 3 Xrotation Yrotation Zrotation
		JOINT LeftLeg
		{
			OFFSET 0.00000 -15.71302 0.00000
			CHANNELS 3 Xrotation Yrotation Zrotation
			JOINT LeftFoot
			{
				OFFSET 0.00000 -14.43512 0.00000
				CHANNELS 3 Xrotation Yrotation Zrotation
				JOINT LeftToeBase
				{
					OFFSET 0.00000 -1.27828 4.77061
					CHANNELS 3 Xrotation Yrotation Zrotation
					End Site
					{
						OFFSET 0.00000 0.00000 2.95275
					}
				}
			}
		}
	}
	JOINT RightUpLeg
	{
		OFFSET -3.43402 0.00000 0.00000
		CHANNELS 3 Xrotation Yrotation Zrotation
		JOINT RightLeg
		{
			OFFSET 0.00000 -15.71302 0.00000
			CHANNELS 3 Xrotation Yrotation Zrotation
			JOINT RightFoot
			{
				OFFSET 0.00000 -14.43512 0.00000
				CHANNELS 3 Xrotation Yrotation Zrotation
				JOINT RightToeBase
				{
					OFFSET 0.00000 -1.27828 4.77061
					CHANNELS 3 Xrotation Yrotation Zrotation
					End Site
					{
						OFFSET 0.00000 0.00000 2.95275
					}
				}
			}
		}
	}
}
MOTION
Frames: 15
Frame Time: 0.008333
 1.6533 32.9600 -6.8099 45.0838 -27.7781 7.1017 -43.5714 -7.9455 14.9088 22.0492 -22.6802 0.8086 46.1976 20.8283 6.2471 -56.5823 -41.1854 -98.5937 -16.4075 -0.0000 9.0547 2.2942 19.3327 -6.9001 33.1476 -0.0000 26.2537 40.0161 -20.8754 -12.5154 -62.7584 -19.5205 68.4023 80.7793 0.0000 -12.7824 14.2495 13.1663 -48.1107 32.8623 0.0000 -24.3270 -33.9474 15.5290 5.5180 -1.7160 0.0000 0.0000 -9.1070 7.9357 6.9865 -0.1084 -0.0000 0.0000 -66.1075 -22.2686 -5.7353 122.4898 -0.0000 0.0000 43.6389 -5.5532 12.3904 57.2450 -0.0000 0.0000
 1.6119 32.9778 -6.7753 45.2400 -27.7966 6.9348 -43.8679 -8.0404 15.1648 21.8303 -22.7128 0.9576 46.0177 20.8469 6.4327 -56.5551 -41.3290 -98.7799 -16.5269 -0.0000 8.9599 2.3031 19.2451 -6.9567 33.1476 -0.0000 26.2537 39.9643 -20.7867 -12.4127 -62.6544 -19.8146 68.3341 81.0240 0.0000 -12.5882 14.2004 13.1339 -48.0772 32.8623 0.0000 -24.3270 -34.1462 15.6319 5.7863 -1.6559 0.0000 0.0000 -9.0441 7.8020 7.1616 -0.3734 0.0000 -0.0000 -64.9336 -22.0585 -5.3082 124.9974 -0.0000 0.0000 44.1008 -4.2515 11.8775 57.2758 -0.0000 0.0000
 1.5712 32.9996 -6.7472 45.5685 -27.7675 6.8062 -44.3086 -8.2108 15.4221 21.5344 -22.7003 1.1037 45.9167 20.9364 6.5933 -56.6572 -41.5235 -99.0149 -16.6395 -0.0000 8.8946 2.3678 19.2725 -7.1408 33.1476 -0.0000 26.2537 39.9103 -20.6458 -12.3365 -62.5341 -20.2015 68.2630 81.3479 0.0000 -12.3957 14.1499 13.1323 -47.9749 32.8623 0.0000 -24.3270 -34.5456 15.6764 6.0855 -1.5506 -0.0000 -0.0000 -9.0160 7.6809 7.1950 -0.4953 -0.0000 0.0000 -63.9240 -21.9242 -4.8879 127.3444 0.0000 0.0000 44.5767 -3.0632 11.2590 57.2328 0.0000 -0.0000
 1.5309 33.0162 -6.7152 45.6898 -27.8412 6.6482 -44.5518 -8.2262 15.6844 21.2489 -22.7670 1.2796 45.7491 20.9703 6.8021 -56.7267 -41.7532 -99.2277 -16.7220 -0.0000 8.8566 2.4070 19.1815 -7.2906 33.1476 -0.0000 26.2537 39.8803 -20.5852 -12.2241 -62.4095 -20.5374 68.2310 81.6403 0.0000 -12.1736 14.1190 13.0964 -47.9866 32.8623 0.0000 -24.3270 -34.7119 15.8245 6.3576 -1.4807 -0.0000 -0.0000 -9.0070 7.5641 7.3313 -0.6632 -0.0000 -0.0000 -62.7148 -21.7107 -4.4481 129.5308 0.0000 -0.0000 45.1500 -1.7443 10.1255 56.7802 -0.0000 -0.0000
 1.4919 33.0309 -6.6834 45.8181 -27.8460 6.4967 -44.7908 -8.3152 15.8955 20.8629 -22.7637 1.4244 45.6057 21.0517 6.9701 -56.7911 -41.9190 -99.4347 -16.8490 -0.0000 8.9059 2.4371 19.1064 -7.4085 33.1476 -0.0000 26.2537 39.9270 -20.5397 -12.0899 -62.3696 -20.8948 68.2345 81.9549 0.0000 -11.9104 14.0879 13.0562 -48.0072 32.8623 0.0000 -24.3270 -34.8729 15.8537 6.5755 -1.4368 -0.0000 0.0000 -8.9465 7.5285 7.5863 -0.9268 0.0000 0.0000 -61.5136 -21.5288 -4.1581 131.4898 -0.0000 -0.0000 45.6553 -0.5186 9.4879 56.4549 -0.0000 -0.0000
 1.4520 33.0505 -6.6613 46.1192 -27.8221 6.3937 -45.1782 -8.4478 16.0931 20.4901 -22.7859 1.6516 45.5049 21.1497 7.1671 -56.8502 -42.0841 -99.6041 -17.0583 -0.0000 8.9304 2.4749 19.1176 -7.5182 33.1476 -0.0000 26.2537 40.0225 -20.4890 -11.9337 -62.3628 -21.2404 68.2448 82.2472 0.0000 -11.6405 14.1199 13.0878 -48.0068 32.8623 0.0000 -24.3270 -35.2679 15.8829 6.8413 -1.2894 -0.0000 -0.0000 -8.9468 7.4729 7.6746 -1.0166 -0.0000 -0.0000 -60.5355 -21.3873 -3.8120 133.1828 -0.0000 -0.0000 46.1865 0.4627 9.0947 56.3745 0.0000 -0.0000
 1.4182 33.0669 -6.6401 46.3766 -27.8459 6.3696 -45.5074 -8.4655 16.2501 20.0867 -22.8480 1.8530 45.4177 21.2315 7.3868 -56.9254 -42.2198 -99.7711 -17.2724 -0.0000 9.0114 2.5239 19.0930 -7.6747 33.1476 -0.0000 26.2537 40.0354 -20.4734 -11.8107 -62.2461 -21.4695 68.2635 82.4756 0.0000 -11.3673 14.1781 13.0492 -48.2115 32.8623 0.0000 -24.3270 -35.5878 15.9926 7.0374 -1.1588 0.0000 -0.0000 -8.9386 7.4048 7.7936 -1.1223 -0.0000 -0.0000 -59.6115 -21.1809 -3.5366 134.6185 0.0000 0.0000 46.5778 1.2167 8.7185 56.5151 -0.0000 0.0000
 1.3878 33.0815 -6.6216 46.7180 -27.8412 6.4328 -45.8932 -8.5049 16.3481 19.6254 -22.8219 2.0636 45.2432 21.3351 7.6204 -56.8662 -42.3050 -99.9089 -17.5151 -0.0000 9.1231 2.5371 19.0112 -7.7461 33.1476 -0.0000 26.2537 40.0046 -20.4582 -11.7283 -62.0544 -21.6018 68.3362 82.5670 0.0000 -10.8646 14.2610 13.0017 -48.4864 32.8623 0.0000 -24.3270 -35.9354 16.0168 7.1687 -1.0814 -0.0000 0.0000 -8.8977 7.4392 7.8940 -1.2094 0.0000 -0.0000 -58.8478 -20.9783 -3.3454 135.7601 -0.0000 -0.0000 46.8816 1.8727 8.3286 56.4709 0.0000 0.0000
 1.3553 33.0959 -6.6027 46.9990 -27.8235 6.4316 -46.2283 -8.5512 16.4441 19.2001 -22.8504 2.3299 45.1589 21.4132 7.8565 -56.8766 -42.4175 -100.0184 -17.7978 -0.0000 9.1323 2.5283 19.0898 -7.6891 33.1476 -0.0000 26.2537 39.9662 -20.4790 -11.5992 -61.7970 -21.5020 68.4027 82.5037 0.0000 -10.7850 14.5415 12.8974 -49.2879 32.8623 0.0000 -24.3270 -36.2183 15.9455 7.3242 -1.0118 -0.0000 0.0000 -8.8984 7.4731 7.9116 -1.1802 0.0000 -0.0000 -58.0966 -20.8704 -3.1718 136.5224 0.0000 0.0000 47.1393 2.3550 7.9072 56.3292 -0.0000 -0.0000
 1.3190 33.1075 -6.5773 47.1895 -27.9007 6.4619 -46.4820 -8.5342 16.5389 18.8239 -22.8724 2.5670 45.1458 21.4682 8.0680 -56.7302 -42.2537 -99.9771 -18.1482 -0.0000 9.4398 2.6002 18.9668 -7.9540 33.1476 -0.0000 26.2537 39.9841 -20.4680 -11.4813 -61.6051 -21.5122 68.4581 82.4661 0.0000 -10.4934 14.8499 13.0247 -49.6354 32.8623 0.0000 -24.3270 -36.3464 16.0424 7.4690 -1.0392 0.0000 -0.0000 -8.8516 7.4756 7.8832 -1.2586 0.0000 -0.0000 -57.3119 -20.6546 -2.9906 136.9501 0.0000 0.0000 47.2121 2.7189 7.7732 55.9794 -0.0000 -0.0000
 1.2877 33.1166 -6.5567 47.3037 -27.9520 6.4678 -46.6236 -8.5671 16.6051 18.3929 -22.8530 2.7951 45.1406 21.5494 8.2058 -56.6667 -42.2300 -99.9654 -18.4200 -0.0000 9.5861 2.6412 18.8352 -8.1316 33.1476 -0.0000 26.2537 40.0416 -20.4447 -11.3550 -61.5306 -21.5429 68.4975 82.5051 0.0000 -10.0753 15.0105 13.0640 -49.8699 32.8623 0.0000 -24.3270 -36.4070 16.0672 7.5804 -1.0694 0.0000 -0.0000 -8.7862 7.5068 7.9789 -1.3589 0.0000 -0.0000 -56.6081 -20.5530 -2.8940 137.0037 -0.0000 -0.0000 47.1721 2.9155 7.6837 56.2523 -0.0000 0.0000
 1.2537 33.1226 -6.5333 47.3869 -28.0958 6.4987 -46.7071 -8.5724 16.6990 17.9807 -22.7987 3.0222 45.1601 21.6310 8.3321 -56.5198 -42.2536 -99.8766 -18.7618 -0.0000 9.5967 2.5550 19.0070 -7.8016 33.1476 -0.0000 26.2537 40.1121 -20.3969 -11.2524 -61.4530 -21.5158 68.5614 82.4716 0.0000 -9.9591 14.8621 12.9063 -49.9134 32.8623 0.0000 -24.3270 -36.3728 16.1232 7.7071 -1.1505 -0.0000 -0.0000 -8.7744 7.5797 7.9493 -1.3788 -0.0000 0.0000 -55.9550 -20.4411 -2.7030 136.7103 0.0000 0.0000 47.1569 3.0331 7.4209 56.2425 0.0000 0.0000
 1.2227 33.1283 -6.5138 47.4892 -28.1934 6.5369 -46.7805 -8.6506 16.7622 17.5542 -22.6837 3.2158 45.1598 21.6974 8.4575 -56.2703 -42.1317 -99.7322 -19.1143 -0.0000 9.6042 2.5548 19.0993 -7.7653 33.1476 -0.0000 26.2537 40.1745 -20.3249 -11.1534 -61.4518 -21.5469 68.6141 82.3710 0.0000 -9.5018 14.8430 12.9515 -49.7783 32.8623 0.0000 -24.3270 -36.3724 16.1330 7.8066 -1.2175 0.0000 0.0000 -8.7528 7.6601 7.9151 -1.3625 -0.0000 0.0000 -55.4385 -20.3845 -2.5561 136.1009 -0.0000 0.0000 47.0795 3.1965 7.1918 56.3146 -0.0000 0.0000
 1.1931 33.1305 -6.4998 47.6169 -28.3399 6.6700 -46.8449 -8.6581 16.7806 17.1046 -22.5806 3.4551 45.2685 21.8441 8.4871 -56.1758 -42.0425 -99.5776 -19.4206 -0.0000 9.6787 2.5856 19.0814 -7.8647 33.1476 -0.0000 26.2537 40.2161 -20.2356 -11.0569 -61.4439 -21.5357 68.6831 82.3238 0.0000 -9.4103 14.7463 12.9391 -49.6117 32.8623 0.0000 -24.3270 -36.3584 16.1561 7.8631 -1.3003 0.0000 -0.0000 -8.7336 7.8080 7.9646 -1.2934 0.0000 0.0000 -55.0744 -20.3545 -2.4130 135.2500 -0.0000 -0.0000 46.9680 3.2779 6.7556 56.3486 -0.0000 0.0000
 1.1661 33.1300 -6.4887 47.7519 -28.4882 6.8209 -46.8968 -8.6506 16.7899 16.6523 -22.4552 3.6962 45.2865 21.9225 8.5994 -55.9397 -41.8548 -99.4049 -19.7095 -0.0000 9.7862 2.5437 19.1026 -7.7307 33.1476 -0.0000 26.2537 40.2348 -20.1513 -10.9467 -61.4856 -21.5697 68.7343 82.3443 0.0000 -9.3416 14.9110 12.9563 -49.9032 32.8623 0.0000 -24.3270 -36.3302 16.1275 7.9016 -1.4048 -0.0000 -0.0000 -8.7321 8.0326 8.0109 -1.3552 -0.0000 0.0000 -54.8186 -20.3672 -2.2883 134.1881 -0.0000 0.0000 46.7355 2.9709 6.7804 56.5076 -0.0000 -0.0000
